<svg width="29" height="29" viewBox="0 0 29 29" fill="none" xmlns="http://www.w3.org/2000/svg">
<path d="M24.1667 9.66659L14.5 15.7083L4.83335 9.66659V7.24992L14.5 13.2916L24.1667 7.24992M24.1667 4.83325H4.83335C3.4921 4.83325 2.41669 5.90867 2.41669 7.24992V21.7499C2.41669 22.3909 2.6713 23.0055 3.12451 23.4588C3.57773 23.912 4.19241 24.1666 4.83335 24.1666H24.1667C24.8076 24.1666 25.4223 23.912 25.8755 23.4588C26.3287 23.0055 26.5834 22.3909 26.5834 21.7499V7.24992C26.5834 6.60898 26.3287 5.99429 25.8755 5.54108C25.4223 5.08786 24.8076 4.83325 24.1667 4.83325Z" fill="#22211F"/>
</svg>
