<svg width="29" height="29" viewBox="0 0 29 29" fill="none" xmlns="http://www.w3.org/2000/svg">
<g clip-path="url(#clip0_30_471)">
<path d="M21.75 4.83341H2.41665V2.41675H21.75V4.83341ZM21.1458 15.7084H19.3333V21.7501L23.6954 24.3601L24.6016 22.8859L21.1458 20.8438V15.7084ZM29 20.5417C29 25.218 25.2179 29.0001 20.5416 29.0001C16.2762 29.0001 12.7721 25.8463 12.18 21.7501H2.41665V14.5001H1.20831V12.0834L2.41665 6.04175H21.75L22.9583 12.0834V12.4338C26.4504 13.4851 29 16.7113 29 20.5417ZM4.83331 19.3334H12.0833V14.5001H4.83331V19.3334ZM26.5833 20.5417C26.5833 17.2067 23.8766 14.5001 20.5416 14.5001C17.2066 14.5001 14.5 17.2067 14.5 20.5417C14.5 23.8767 17.2066 26.5834 20.5416 26.5834C23.8766 26.5834 26.5833 23.8767 26.5833 20.5417Z" fill="#22211F"/>
</g>
<defs>
<clipPath id="clip0_30_471">
<rect width="29" height="29" fill="white"/>
</clipPath>
</defs>
</svg>
