<svg width="29" height="29" viewBox="0 0 29 29" fill="none" xmlns="http://www.w3.org/2000/svg">
<path d="M24.1667 14.5C23.8444 14.5 23.5577 14.384 23.3063 14.152C23.0542 13.9208 22.908 13.634 22.8677 13.2917C22.6059 11.4188 21.8157 9.82254 20.497 8.50304C19.1775 7.18435 17.5813 6.3941 15.7083 6.13229C15.366 6.09201 15.0792 5.95104 14.848 5.70937C14.616 5.46771 14.5 5.17569 14.5 4.83333C14.5 4.49097 14.6208 4.20379 14.8625 3.97179C15.1042 3.7406 15.3861 3.64514 15.7083 3.68542C18.2458 3.96736 20.4108 5.00451 22.2031 6.79688C23.9955 8.58924 25.0326 10.7542 25.3146 13.2917C25.3549 13.6139 25.259 13.8958 25.027 14.1375C24.7958 14.3792 24.509 14.5 24.1667 14.5ZM19.1219 14.5C18.8601 14.5 18.6285 14.4094 18.4271 14.2281C18.2257 14.0469 18.0747 13.8052 17.974 13.5031C17.8128 12.9191 17.5059 12.4003 17.0532 11.9468C16.5997 11.4941 16.0809 11.1872 15.4969 11.026C15.1948 10.9253 14.9531 10.7743 14.7719 10.5729C14.5906 10.3715 14.5 10.1299 14.5 9.84792C14.5 9.44514 14.641 9.11768 14.9229 8.86554C15.2049 8.61421 15.517 8.52882 15.8594 8.60938C16.9872 8.87118 17.9591 9.40969 18.7751 10.2249C19.5903 11.0409 20.1288 12.0128 20.3906 13.1406C20.4712 13.483 20.3806 13.7951 20.1187 14.0771C19.8569 14.359 19.5247 14.5 19.1219 14.5ZM24.1063 25.375C21.5083 25.375 18.9761 24.7958 16.5095 23.6374C14.042 22.4798 11.857 20.9493 9.95425 19.0458C8.05072 17.143 6.52017 14.958 5.36258 12.4905C4.20419 10.0239 3.625 7.49167 3.625 4.89375C3.625 4.53125 3.74583 4.22917 3.9875 3.9875C4.22917 3.74583 4.53125 3.625 4.89375 3.625H9.7875C10.0694 3.625 10.3212 3.71562 10.5427 3.89687C10.7642 4.07812 10.8951 4.30972 10.9354 4.59167L11.7208 8.82083C11.7611 9.10278 11.7563 9.35935 11.7063 9.59054C11.6556 9.82254 11.5396 10.0292 11.3583 10.2104L8.45833 13.1708C9.30417 14.6208 10.3615 15.9802 11.6302 17.249C12.899 18.5177 14.2986 19.6153 15.8292 20.5417L18.6687 17.7021C18.85 17.5208 19.0868 17.3847 19.3793 17.2937C19.6709 17.2034 19.9576 17.1785 20.2396 17.2188L24.4083 18.0646C24.6903 18.125 24.9219 18.2607 25.1031 18.4718C25.2844 18.6837 25.375 18.9306 25.375 19.2125V24.1063C25.375 24.4688 25.2542 24.7708 25.0125 25.0125C24.7708 25.2542 24.4688 25.375 24.1063 25.375Z" fill="#22211F"/>
</svg>
