<svg width="29" height="29" viewBox="0 0 29 29" fill="none" xmlns="http://www.w3.org/2000/svg">
<path d="M14.5 14.5001C15.1646 14.5001 15.7337 14.2632 16.2074 13.7896C16.6802 13.3167 16.9166 12.748 16.9166 12.0834C16.9166 11.4188 16.6802 10.8497 16.2074 10.376C15.7337 9.90318 15.1646 9.66675 14.5 9.66675C13.8354 9.66675 13.2667 9.90318 12.7938 10.376C12.3201 10.8497 12.0833 11.4188 12.0833 12.0834C12.0833 12.748 12.3201 13.3167 12.7938 13.7896C13.2667 14.2632 13.8354 14.5001 14.5 14.5001ZM14.5 26.5834C11.2576 23.8244 8.83612 21.2615 7.23548 18.8948C5.63404 16.5289 4.83331 14.339 4.83331 12.3251C4.83331 9.30425 5.80522 6.89765 7.74902 5.10529C9.69202 3.31293 11.9423 2.41675 14.5 2.41675C17.0576 2.41675 19.3079 3.31293 21.2509 5.10529C23.1947 6.89765 24.1666 9.30425 24.1666 12.3251C24.1666 14.339 23.3663 16.5289 21.7657 18.8948C20.1642 21.2615 17.7423 23.8244 14.5 26.5834Z" fill="#22211F"/>
</svg>
